<svg width="50" height="50" viewBox="0 0 50 50" fill="none" xmlns="http://www.w3.org/2000/svg">
<path d="M25 0C11.1111 0 0 11.1111 0 25C0 38.8889 11.1111 50 25 50C38.8889 50 50 38.8889 50 25C50 11.1111 38.8889 0 25 0ZM25 19.4444C28.0556 19.4444 30.5556 21.9444 30.5556 25C30.5556 28.0556 28.0556 30.5556 25 30.5556C21.9444 30.5556 19.4444 28.0556 19.4444 25C19.4444 21.9444 21.9444 19.4444 25 19.4444ZM32.7778 13.8889C32.7778 11.9444 34.4444 10.5556 36.1111 10.5556C37.7778 10.5556 39.4444 12.2222 39.4444 13.8889C39.4444 15.5556 38.0556 17.2222 36.1111 17.2222C34.1667 17.2222 32.7778 15.8333 32.7778 13.8889ZM25 44.4444C14.1667 44.4444 5.55556 35.8333 5.55556 25H13.8889C13.8889 31.1111 18.8889 36.1111 25 36.1111C31.1111 36.1111 36.1111 31.1111 36.1111 25H44.4444C44.4444 35.8333 35.8333 44.4444 25 44.4444Z" fill="white"/>
</svg>
