<svg width="50" height="50" viewBox="0 0 50 50" fill="none" xmlns="http://www.w3.org/2000/svg">
<path d="M25 50C21.6146 50 18.3757 49.3408 15.2832 48.0225C12.1908 46.7041 9.52962 44.93 7.2998 42.7002C5.06999 40.4704 3.2959 37.8092 1.97754 34.7168C0.65918 31.6243 0 28.3854 0 25C0 21.6146 0.65918 18.3757 1.97754 15.2832C3.2959 12.1908 5.06999 9.52962 7.2998 7.2998C9.52962 5.06999 12.1908 3.2959 15.2832 1.97754C18.3757 0.65918 21.6146 0 25 0C28.3854 0 31.6243 0.65918 34.7168 1.97754C37.8092 3.2959 40.4704 5.06999 42.7002 7.2998C44.93 9.52962 46.7041 12.1908 48.0225 15.2832C49.3408 18.3757 50 21.6146 50 25C50 28.3854 49.3408 31.6243 48.0225 34.7168C46.7041 37.8092 44.93 40.4704 42.7002 42.7002C40.4704 44.93 37.8092 46.7041 34.7168 48.0225C31.6243 49.3408 28.3854 50 25 50ZM39.6973 12.5C39.502 12.5977 39.209 12.7767 38.8184 13.0371L37.8662 13.6719L36.9629 14.1602L35.9375 14.502C34.7331 13.1673 33.252 12.5 31.4941 12.5C27.6855 12.5 25.7812 14.0951 25.7812 17.2852V20.166C20.5404 19.9056 16.5202 17.985 13.7207 14.4043C12.9069 15.2507 12.5 16.1784 12.5 17.1875C12.5 19.3359 13.2975 20.9635 14.8926 22.0703C14.6973 22.0703 14.4206 22.0866 14.0625 22.1191C13.7044 22.1517 13.4196 22.1517 13.208 22.1191C12.9964 22.0866 12.7604 22.0052 12.5 21.875C12.5 23.3724 12.8988 24.6175 13.6963 25.6104C14.4938 26.6032 15.5924 27.2461 16.9922 27.5391C16.6667 27.9297 16.2109 28.125 15.625 28.125C15.1042 28.125 14.6484 27.9785 14.2578 27.6855C14.2578 28.9551 14.8682 29.9398 16.0889 30.6396C17.3096 31.3395 18.6849 31.7057 20.2148 31.7383C19.6289 32.6172 18.7744 33.2764 17.6514 33.7158C16.5283 34.1553 15.332 34.375 14.0625 34.375C13.6068 34.375 12.9801 34.2611 12.1826 34.0332C11.3851 33.8053 10.9701 33.6914 10.9375 33.6914C11.4583 34.7331 12.5244 35.6283 14.1357 36.377C15.7471 37.1257 17.7897 37.5 20.2637 37.5C22.4447 37.5 24.4792 37.1175 26.3672 36.3525C28.2552 35.5876 29.8665 34.5703 31.2012 33.3008C32.5358 32.0312 33.6833 30.5827 34.6436 28.9551C35.6038 27.3275 36.32 25.6429 36.792 23.9014C37.264 22.1598 37.5 20.4427 37.5 18.75C37.5 18.6849 37.6953 18.5465 38.0859 18.335C38.4766 18.1234 38.9323 17.8385 39.4531 17.4805C39.974 17.1224 40.3646 16.748 40.625 16.3574C38.8672 16.3574 37.6953 16.39 37.1094 16.4551C38.2487 15.7715 39.1113 14.4531 39.6973 12.5Z" fill="white"/>
</svg>
